<mxfile host="Electron" modified="2023-12-17T08:42:21.671Z" agent="Mozilla/5.0 (Windows NT 10.0; Win64; x64) AppleWebKit/537.36 (KHTML, like Gecko) draw.io/22.1.2 Chrome/114.0.5735.289 Electron/25.9.4 Safari/537.36" etag="xxf2n9N4cS_ObE-K08L7" version="22.1.2" type="device">
  <diagram name="ページ1" id="ms9c_-d_8BR-9iWHCnS3">
    <mxGraphModel dx="1418" dy="868" grid="1" gridSize="10" guides="1" tooltips="1" connect="1" arrows="1" fold="1" page="1" pageScale="1" pageWidth="827" pageHeight="1169" math="0" shadow="0">
      <root>
        <mxCell id="0" />
        <mxCell id="1" parent="0" />
        <mxCell id="2ig3HNlDIH_D3pHPJR8Q-1" value="" style="rounded=0;whiteSpace=wrap;html=1;labelBackgroundColor=default;fontSize=14;" parent="1" vertex="1">
          <mxGeometry x="60" y="60" width="1240" height="480" as="geometry" />
        </mxCell>
        <mxCell id="2ig3HNlDIH_D3pHPJR8Q-2" value="External Receiver Apps" style="rounded=0;whiteSpace=wrap;html=1;" parent="1" vertex="1">
          <mxGeometry x="150" y="370" width="180" height="60" as="geometry" />
        </mxCell>
        <mxCell id="2ig3HNlDIH_D3pHPJR8Q-3" value="" style="endArrow=none;html=1;exitX=0.75;exitY=0;exitDx=0;exitDy=0;startArrow=block;startFill=1;endFill=0;entryX=0.25;entryY=1;entryDx=0;entryDy=0;" parent="1" source="2ig3HNlDIH_D3pHPJR8Q-2" target="2ig3HNlDIH_D3pHPJR8Q-5" edge="1">
          <mxGeometry width="50" height="50" relative="1" as="geometry">
            <mxPoint x="367.5" y="299.86" as="sourcePoint" />
            <mxPoint x="477.5" y="300" as="targetPoint" />
          </mxGeometry>
        </mxCell>
        <mxCell id="2ig3HNlDIH_D3pHPJR8Q-4" style="edgeStyle=none;html=1;exitX=1;exitY=0.5;exitDx=0;exitDy=0;entryX=0;entryY=0.5;entryDx=0;entryDy=0;startArrow=block;startFill=1;endArrow=none;endFill=0;" parent="1" source="2ig3HNlDIH_D3pHPJR8Q-5" target="2ig3HNlDIH_D3pHPJR8Q-8" edge="1">
          <mxGeometry relative="1" as="geometry">
            <mxPoint x="717.5" y="300" as="targetPoint" />
          </mxGeometry>
        </mxCell>
        <mxCell id="2ig3HNlDIH_D3pHPJR8Q-5" value="Mocast Studio" style="rounded=0;whiteSpace=wrap;html=1;fillColor=#d5e8d4;strokeColor=#82b366;" parent="1" vertex="1">
          <mxGeometry x="400" y="170" width="180" height="60" as="geometry" />
        </mxCell>
        <mxCell id="2ig3HNlDIH_D3pHPJR8Q-6" value="HumanPose data" style="text;html=1;strokeColor=none;fillColor=none;align=center;verticalAlign=middle;whiteSpace=wrap;rounded=0;labelBackgroundColor=default;" parent="1" vertex="1">
          <mxGeometry x="280" y="285" width="150" height="30" as="geometry" />
        </mxCell>
        <mxCell id="2ig3HNlDIH_D3pHPJR8Q-7" value="Motion capture data" style="text;html=1;strokeColor=none;fillColor=none;align=center;verticalAlign=middle;whiteSpace=wrap;rounded=0;labelBackgroundColor=default;" parent="1" vertex="1">
          <mxGeometry x="632.5" y="310" width="150" height="30" as="geometry" />
        </mxCell>
        <mxCell id="2ig3HNlDIH_D3pHPJR8Q-8" value="MotionBuilder" style="rounded=0;whiteSpace=wrap;html=1;" parent="1" vertex="1">
          <mxGeometry x="799.5" y="370" width="180" height="60" as="geometry" />
        </mxCell>
        <mxCell id="2ig3HNlDIH_D3pHPJR8Q-9" value="VMC Protocol&lt;br style=&quot;border-color: var(--border-color);&quot;&gt;Performer Apps" style="rounded=0;whiteSpace=wrap;html=1;" parent="1" vertex="1">
          <mxGeometry x="799.5" y="270" width="180" height="60" as="geometry" />
        </mxCell>
        <mxCell id="2ig3HNlDIH_D3pHPJR8Q-10" style="edgeStyle=none;html=1;exitX=1;exitY=0.5;exitDx=0;exitDy=0;entryX=0;entryY=0.5;entryDx=0;entryDy=0;startArrow=block;startFill=1;endArrow=none;endFill=0;" parent="1" source="2ig3HNlDIH_D3pHPJR8Q-5" target="2ig3HNlDIH_D3pHPJR8Q-9" edge="1">
          <mxGeometry relative="1" as="geometry">
            <mxPoint x="747.5" y="310" as="targetPoint" />
            <mxPoint x="577.5" y="310" as="sourcePoint" />
          </mxGeometry>
        </mxCell>
        <mxCell id="2ig3HNlDIH_D3pHPJR8Q-11" value="Motion capture data" style="text;html=1;strokeColor=none;fillColor=none;align=center;verticalAlign=middle;whiteSpace=wrap;rounded=0;labelBackgroundColor=default;" parent="1" vertex="1">
          <mxGeometry x="632.5" y="240" width="150" height="30" as="geometry" />
        </mxCell>
        <mxCell id="2ig3HNlDIH_D3pHPJR8Q-13" value="Motion Capture Systems" style="rounded=0;whiteSpace=wrap;html=1;" parent="1" vertex="1">
          <mxGeometry x="1030" y="370" width="180" height="60" as="geometry" />
        </mxCell>
        <mxCell id="2ig3HNlDIH_D3pHPJR8Q-14" style="edgeStyle=none;html=1;exitX=1;exitY=0.5;exitDx=0;exitDy=0;entryX=0;entryY=0.5;entryDx=0;entryDy=0;startArrow=block;startFill=1;endArrow=none;endFill=0;" parent="1" source="2ig3HNlDIH_D3pHPJR8Q-8" target="2ig3HNlDIH_D3pHPJR8Q-13" edge="1">
          <mxGeometry relative="1" as="geometry">
            <mxPoint x="1157.5" y="310" as="targetPoint" />
            <mxPoint x="987.5" y="310" as="sourcePoint" />
          </mxGeometry>
        </mxCell>
        <mxCell id="2ig3HNlDIH_D3pHPJR8Q-19" value="mocopi&lt;br style=&quot;border-color: var(--border-color);&quot;&gt;(Mobile App)" style="rounded=0;whiteSpace=wrap;html=1;" parent="1" vertex="1">
          <mxGeometry x="799.5" y="170" width="180" height="60" as="geometry" />
        </mxCell>
        <mxCell id="2ig3HNlDIH_D3pHPJR8Q-20" style="edgeStyle=none;html=1;exitX=1;exitY=0.5;exitDx=0;exitDy=0;entryX=0;entryY=0.5;entryDx=0;entryDy=0;startArrow=block;startFill=1;endArrow=none;endFill=0;" parent="1" source="2ig3HNlDIH_D3pHPJR8Q-5" target="2ig3HNlDIH_D3pHPJR8Q-19" edge="1">
          <mxGeometry relative="1" as="geometry">
            <mxPoint x="787.5" y="310" as="targetPoint" />
            <mxPoint x="617.5" y="310" as="sourcePoint" />
          </mxGeometry>
        </mxCell>
        <mxCell id="2ig3HNlDIH_D3pHPJR8Q-21" value="Motion capture data" style="text;html=1;strokeColor=none;fillColor=none;align=center;verticalAlign=middle;whiteSpace=wrap;rounded=0;labelBackgroundColor=default;" parent="1" vertex="1">
          <mxGeometry x="632.5" y="170" width="150" height="30" as="geometry" />
        </mxCell>
        <mxCell id="2ig3HNlDIH_D3pHPJR8Q-23" value="" style="endArrow=block;html=1;exitX=0.5;exitY=0;exitDx=0;exitDy=0;startArrow=block;startFill=1;endFill=1;dashed=1;" parent="1" source="2ig3HNlDIH_D3pHPJR8Q-24" target="2ig3HNlDIH_D3pHPJR8Q-5" edge="1">
          <mxGeometry width="50" height="50" relative="1" as="geometry">
            <mxPoint x="267.5" y="310" as="sourcePoint" />
            <mxPoint x="437.5" y="310" as="targetPoint" />
          </mxGeometry>
        </mxCell>
        <mxCell id="2ig3HNlDIH_D3pHPJR8Q-24" value="Mocast Studio&lt;br&gt;(Remote)" style="rounded=0;whiteSpace=wrap;html=1;fillColor=#d5e8d4;strokeColor=#82b366;dashed=1;" parent="1" vertex="1">
          <mxGeometry x="400" y="370" width="180" height="60" as="geometry" />
        </mxCell>
      </root>
    </mxGraphModel>
  </diagram>
</mxfile>
